<?xml version="1.0" encoding="iso-8859-1"?>
<!-- Generator: Adobe Illustrator 19.0.0, SVG Export Plug-In . SVG Version: 6.00 Build 0)  -->
<svg version="1.1" id="Layer_1" xmlns="http://www.w3.org/2000/svg" xmlns:xlink="http://www.w3.org/1999/xlink" x="0px" y="0px"
	 viewBox="0 0 512.004 512.004" style="enable-background:new 0 0 512.004 512.004;" xml:space="preserve">
<g transform="translate(0 -1)">
	<path style="fill:#F0C419;" d="M370.76,398.246c0,63.382-51.377,114.759-114.759,114.759s-114.759-51.377-114.759-114.759
		s51.377-114.759,114.759-114.759S370.76,334.864,370.76,398.246"/>
	<g>
		<path style="fill:#FFE69F;" d="M228.699,332.453c-3.593,0-6.974-2.207-8.28-5.782c-1.686-4.573,0.662-9.649,5.235-11.326
			c6.426-2.366,13.135-3.972,19.942-4.776c4.873-0.6,9.234,2.895,9.799,7.733c0.574,4.846-2.895,9.234-7.733,9.807
			c-5.438,0.636-10.787,1.924-15.916,3.796C230.738,332.276,229.705,332.453,228.699,332.453 M299.487,340.61
			c-1.668,0-3.337-0.468-4.838-1.448c-4.582-3.01-9.507-5.473-14.645-7.336c-4.59-1.668-6.956-6.735-5.297-11.317
			c1.651-4.582,6.735-6.921,11.308-5.288c6.427,2.339,12.588,5.42,18.317,9.181c4.078,2.675,5.208,8.148,2.534,12.226
			C305.181,339.206,302.365,340.61,299.487,340.61 M187.139,367.463c-1.501,0-3.019-0.38-4.405-1.183
			c-4.228-2.445-5.676-7.848-3.231-12.058c3.425-5.932,7.539-11.458,12.226-16.428c3.328-3.558,8.925-3.716,12.473-0.371
			c3.549,3.337,3.716,8.934,0.371,12.482c-3.743,3.972-7.036,8.404-9.781,13.144C193.159,365.883,190.193,367.463,187.139,367.463
			 M332.061,384.085c-3.796,0-7.292-2.463-8.448-6.276c-1.589-5.235-3.787-10.275-6.541-15.007
			c-2.454-4.211-1.024-9.613,3.178-12.076c4.22-2.428,9.613-1.015,12.076,3.187c3.452,5.914,6.197,12.226,8.183,18.794
			c1.412,4.661-1.227,9.587-5.897,10.999C333.765,383.962,332.909,384.085,332.061,384.085 M177.755,420.941
			c-4.202,0-7.927-3.001-8.678-7.292c-0.883-5.023-1.342-10.205-1.351-15.386c0-1.704,0.053-3.381,0.141-5.049
			c0.282-4.882,4.74-8.607,9.313-8.316c4.873,0.283,8.598,4.449,8.307,9.313c-0.071,1.342-0.106,2.692-0.106,4.034
			c0.009,4.158,0.371,8.316,1.077,12.341c0.856,4.802-2.357,9.375-7.159,10.222C178.788,420.905,178.267,420.941,177.755,420.941
			 M329.051,438.296c-1.165,0-2.348-0.23-3.478-0.715c-4.484-1.933-6.559-7.115-4.634-11.591c2.163-5.032,3.725-10.311,4.661-15.704
			c0.821-4.793,5.305-8.015,10.196-7.194c4.802,0.83,8.024,5.385,7.194,10.196c-1.165,6.753-3.116,13.374-5.826,19.668
			C335.725,436.301,332.467,438.296,329.051,438.296 M204.97,467.939c-1.995,0-4.008-0.68-5.658-2.074
			c-5.226-4.379-9.949-9.375-14.062-14.857c-2.922-3.911-2.119-9.446,1.774-12.367c3.919-2.931,9.454-2.11,12.367,1.774
			c3.293,4.405,7.08,8.422,11.264,11.935c3.734,3.134,4.228,8.695,1.086,12.429C210.002,466.871,207.504,467.939,204.97,467.939
			 M291.913,477.923c-3.222,0-6.321-1.766-7.874-4.82c-2.207-4.361-0.477-9.666,3.866-11.873c4.873-2.472,9.454-5.517,13.639-9.057
			c3.725-3.169,9.304-2.684,12.438,1.024c3.16,3.725,2.692,9.287-1.024,12.438c-5.235,4.431-10.964,8.245-17.055,11.335
			C294.623,477.614,293.255,477.923,291.913,477.923 M256.32,486.521h-0.318c-6.886,0-13.736-0.794-20.356-2.366
			c-4.74-1.121-7.671-5.879-6.541-10.637c1.139-4.74,5.906-7.654,10.628-6.541c5.279,1.254,10.752,1.889,16.269,1.889
			c4.882,0,8.986,3.946,8.986,8.828C264.989,482.575,261.202,486.521,256.32,486.521"/>
		<path style="fill:#FFE69F;" d="M256.001,442.384c-4.882,0-8.828-3.946-8.828-8.828v-70.621c0-4.882,3.946-8.828,8.828-8.828
			c4.882,0,8.828,3.946,8.828,8.828v70.621C264.828,438.438,260.883,442.384,256.001,442.384"/>
		<path style="fill:#FFE69F;" d="M220.691,442.384c-4.882,0-8.828-3.946-8.828-8.828v-70.621c0-4.882,3.946-8.828,8.828-8.828
			c4.882,0,8.828,3.946,8.828,8.828v70.621C229.518,438.438,225.572,442.384,220.691,442.384"/>
		<path style="fill:#FFE69F;" d="M291.311,442.384c-4.882,0-8.828-3.946-8.828-8.828v-70.621c0-4.882,3.946-8.828,8.828-8.828
			s8.828,3.946,8.828,8.828v70.621C300.139,438.438,296.193,442.384,291.311,442.384"/>
	</g>
	<path style="fill:#BC392F;" d="M211.863,248.177h88.276l89.238-127.1c10.055-14.177,10.505-32.989,1.148-47.625L344.277,1.004
		L211.863,248.177z"/>
	<path style="fill:#E64C3C;" d="M256.276,165.228L167.727,1L121.4,73.651c-9.251,14.521-8.801,33.165,1.156,47.228l89.309,127.294
		L256.276,165.228z"/>
	<polygon style="fill:#932924;" points="167.725,1.004 205.807,71.625 306.442,71.625 344.277,1.004 	"/>
	<path style="fill:#BDC3C7;" d="M256.001,283.487c6.02,0,11.891,0.459,17.655,1.351v-36.661h-35.31v36.661
		C244.11,283.946,249.98,283.487,256.001,283.487"/>
</g>
<g>
</g>
<g>
</g>
<g>
</g>
<g>
</g>
<g>
</g>
<g>
</g>
<g>
</g>
<g>
</g>
<g>
</g>
<g>
</g>
<g>
</g>
<g>
</g>
<g>
</g>
<g>
</g>
<g>
</g>
</svg>
